<?xml version="1.0" encoding="UTF-8"?>
<svg width="313px" height="313px" viewBox="0 0 313 313" version="1.1" xmlns="http://www.w3.org/2000/svg" xmlns:xlink="http://www.w3.org/1999/xlink">
    <!-- Generator: Sketch 61.2 (89653) - https://sketch.com -->
    <title>beta_launch</title>
    <desc>Created with Sketch.</desc>
    <g id="screens" stroke="none" stroke-width="1" fill="none" fill-rule="evenodd">
        <g id="Artboard" transform="translate(-221.000000, -633.000000)">
            <circle id="Oval" fill="#FFFFFF" opacity="0.175432478" transform="translate(377.325660, 800.758330) rotate(-330.000000) translate(-377.325660, -800.758330) " cx="377.32566" cy="800.75833" r="114.5"></circle>
            <g id="Group-11" transform="translate(383.543630, 789.337170) rotate(-330.000000) translate(-383.543630, -789.337170) translate(323.043630, 661.837170)">
                <g id="Group-10" transform="translate(0.000000, 0.000000)">
                    <path d="M34.7207584,109.693735 C14.9575898,121.529559 3.82183509,137.655851 1.31349437,158.072612 C-0.706104714,174.511236 -0.396736566,186.411505 2.24159881,193.773419 C3.21910863,196.501022 5.80439015,198.320805 8.70186246,198.320805 C10.7965529,198.320805 12.5030807,196.638814 12.5333777,194.544342 C12.5989886,190.014045 14.2079891,185.450814 17.3603792,180.854649 C21.3904917,174.97877 27.1772847,170.277265 34.7207584,166.750135 L34.7207584,109.693735 Z" id="Path-16" stroke="#503AD3" fill="#FFC30E"></path>
                    <path d="M120.223951,109.693735 C100.460783,121.529559 89.3250279,137.655851 86.8166871,158.072612 C84.7970881,174.511236 85.1064562,186.411505 87.7447916,193.773419 C88.7223014,196.501022 91.3075829,198.320805 94.2050552,198.320805 C96.2997457,198.320805 98.0062734,196.638814 98.0365705,194.544342 C98.1021814,190.014045 99.7111819,185.450814 102.863572,180.854649 C106.893684,174.97877 112.680478,170.277265 120.223951,166.750135 L120.223951,109.693735 Z" id="Path-16" stroke="#503AD3" fill="#FFC30E" transform="translate(102.863572, 154.007270) scale(-1, 1) translate(-102.863572, -154.007270) "></path>
                    <path d="M55.7119989,5.48441267 L60.0031928,0 L60.0031928,0 L64.2943867,5.4844128 C82.69421,29.0005316 93.1536809,57.7507239 94.1657731,87.5925906 C94.3907195,94.22521 94.5031928,100.857829 94.5031928,107.490449 C94.5031928,127.405642 91.7146279,147.320835 86.1374982,167.236029 C84.6863744,172.417805 79.9631927,176 74.5820619,176 L45.4243281,176 C40.0431962,176.000004 35.3200135,172.417809 33.868888,167.236031 C28.2917579,147.320837 25.5031928,127.405643 25.5031928,107.490449 C25.5031928,100.857829 25.615666,94.2252098 25.8406125,87.5925903 C26.8527048,57.7507237 37.3121757,29.0005314 55.7119989,5.48441267 Z" id="Rectangle" stroke="#503AD3" fill="#FFFFFF"></path>
                    <path d="M60.026692,0.0326795093 L64.2943867,5.4844128 C75.5112928,19.8203166 83.7772708,36.1013955 88.7508925,53.3891581 C80.9276333,55.0647768 72.2017527,56 63,56 C51.5389016,56 40.81605,54.5491363 31.6555995,52.0257091 C36.6667746,35.2447453 44.7906541,19.4425708 55.7119989,5.48441267 L59.9777315,0.0337670717 C59.99405,0.0334016071 60.0103702,0.0330390859 60.026692,0.0326795093 Z" id="Combined-Shape" stroke="#503AD3" fill="#FFC30E"></path>
                    <path d="M72,184 L81.7320945,253.095792 C74.9536458,254.34641 67.96598,255 60.82566,255 C53.4623589,255 46.2613952,254.304951 39.2847981,252.976882 L49,184 L72,184 Z" id="Combined-Shape" fill="#FFC30E"></path>
                    <polygon id="Rectangle" stroke="#503AD3" fill="#E0DCF7" points="46.5031928 176 73.5031928 176 77.5031928 185 42.5031928 185"></polygon>
                    <circle id="Oval" stroke="#503AD3" fill="#6E5CDA" cx="62.0031928" cy="96.5" r="19.5"></circle>
                    <circle id="Oval" stroke="#503AD3" fill="#503AD3" cx="62.0031928" cy="96.5" r="12"></circle>
                    <g id="Group-12" transform="translate(45.556770, 80.106750)" fill="#E0DCF7">
                        <path d="M13.3660254,30.7487113 C13.9183102,30.7487113 14.3660254,31.1964266 14.3660254,31.7487113 C14.3660254,32.3009961 13.9183102,32.7487113 13.3660254,32.7487113 C12.8137407,32.7487113 12.3660254,32.3009961 12.3660254,31.7487113 C12.3660254,31.1964266 12.8137407,30.7487113 13.3660254,30.7487113 Z M24.8923048,28.7128129 C25.4445896,28.7128129 25.8923048,29.1605282 25.8923048,29.7128129 C25.8923048,30.2650977 25.4445896,30.7128129 24.8923048,30.7128129 C24.3400201,30.7128129 23.8923048,30.2650977 23.8923048,29.7128129 C23.8923048,29.1605282 24.3400201,28.7128129 24.8923048,28.7128129 Z M2.66987298,24.2224319 C3.22215773,24.2224319 3.66987298,24.6701471 3.66987298,25.2224319 C3.66987298,25.7747166 3.22215773,26.2224319 2.66987298,26.2224319 C2.11758823,26.2224319 1.66987298,25.7747166 1.66987298,25.2224319 C1.66987298,24.6701471 2.11758823,24.2224319 2.66987298,24.2224319 Z M31.5525589,20.2487113 C32.1048436,20.2487113 32.5525589,20.6964266 32.5525589,21.2487113 C32.5525589,21.8009961 32.1048436,22.2487113 31.5525589,22.2487113 C31.0002741,22.2487113 30.5525589,21.8009961 30.5525589,21.2487113 C30.5525589,20.6964266 31.0002741,20.2487113 31.5525589,20.2487113 Z M1,11.330127 C1.55228475,11.330127 2,11.7778423 2,12.330127 C2,12.8824118 1.55228475,13.330127 1,13.330127 C0.44771525,13.330127 -8.64019967e-12,12.8824118 -8.64019967e-12,12.330127 C-8.64019967e-12,11.7778423 0.44771525,11.330127 1,11.330127 Z M30.3826859,8.22243186 C30.9349707,8.22243186 31.3826859,8.67014711 31.3826859,9.22243186 C31.3826859,9.77471661 30.9349707,10.2224319 30.3826859,10.2224319 C29.8304012,10.2224319 29.3826859,9.77471661 29.3826859,9.22243186 C29.3826859,8.67014711 29.8304012,8.22243186 30.3826859,8.22243186 Z M7.16025404,2 C7.71253879,2 8.16025404,2.44771525 8.16025404,3 C8.16025404,3.55228475 7.71253879,4 7.16025404,4 C6.60796929,4 6.16025404,3.55228475 6.16025404,3 C6.16025404,2.44771525 6.60796929,2 7.16025404,2 Z M20.0525589,0.330127019 C20.6048436,0.330127019 21.0525589,0.777842269 21.0525589,1.33012702 C21.0525589,1.88241177 20.6048436,2.33012702 20.0525589,2.33012702 C19.5002741,2.33012702 19.0525589,1.88241177 19.0525589,1.33012702 C19.0525589,0.777842269 19.5002741,0.330127019 20.0525589,0.330127019 Z" id="Oval-3"></path>
                    </g>
                </g>
            </g>
            <polygon id="Star" fill="#FFFFFF" transform="translate(315.000000, 741.000000) rotate(-45.000000) translate(-315.000000, -741.000000) " points="315 744.566313 307.928932 748.071068 311.433687 741 307.928932 733.928932 315 737.433687 322.071068 733.928932 318.566313 741 322.071068 748.071068"></polygon>
            <polygon id="Star" fill="#FFFFFF" transform="translate(455.000000, 854.000000) rotate(-45.000000) translate(-455.000000, -854.000000) " points="455 857.566313 447.928932 861.071068 451.433687 854 447.928932 846.928932 455 850.433687 462.071068 846.928932 458.566313 854 462.071068 861.071068"></polygon>
            <polygon id="Star" fill="#FFFFFF" transform="translate(289.000000, 784.000000) rotate(-45.000000) translate(-289.000000, -784.000000) " points="289 786.139788 284.757359 788.242641 286.860212 784 284.757359 779.757359 289 781.860212 293.242641 779.757359 291.139788 784 293.242641 788.242641"></polygon>
            <polygon id="Star" fill="#FFFFFF" transform="translate(508.000000, 819.000000) rotate(-45.000000) translate(-508.000000, -819.000000) " points="508 821.139788 503.757359 823.242641 505.860212 819 503.757359 814.757359 508 816.860212 512.242641 814.757359 510.139788 819 512.242641 823.242641"></polygon>
            <polygon id="Star" fill="#FFFFFF" transform="translate(247.000000, 741.000000) rotate(-45.000000) translate(-247.000000, -741.000000) " points="247 743.139788 242.757359 745.242641 244.860212 741 242.757359 736.757359 247 738.860212 251.242641 736.757359 249.139788 741 251.242641 745.242641"></polygon>
            <polygon id="Star" fill="#FFFFFF" transform="translate(461.000000, 776.000000) rotate(-45.000000) translate(-461.000000, -776.000000) " points="461 778.139788 456.757359 780.242641 458.860212 776 456.757359 771.757359 461 773.860212 465.242641 771.757359 463.139788 776 465.242641 780.242641"></polygon>
            <polygon id="Path-17" fill="#FFFFFF" opacity="0.91531808" points="350.376832 837.182309 321.083549 874.199412 339.207938 858.265992 321.083549 894.125207 345.703925 863.370176 339.558465 887.93031 358.965795 842.119055"></polygon>
        </g>
    </g>
</svg>