<svg width="503" height="228" viewBox="0 0 503 228" fill="none" xmlns="http://www.w3.org/2000/svg">
<rect x="197" y="92" width="120" height="120" rx="25" fill="url(#paint0_linear)"/>
<path d="M236.333 128.167C236.333 127.062 237.229 126.167 238.333 126.167H265.661C265.906 126.167 266.143 126.257 266.326 126.419L277.331 136.202C277.545 136.391 277.667 136.663 277.667 136.949V174.441C277.667 174.813 277.276 175.054 276.943 174.888L267.333 170.083L257.224 175.138C257.083 175.209 256.917 175.209 256.776 175.138L246.667 170.083L237.057 174.888C236.725 175.054 236.333 174.813 236.333 174.441V128.167Z" stroke="white" stroke-width="2"/>
<path d="M257 136.5V164.917" stroke="#F2F2F2" stroke-width="2" stroke-linecap="round" stroke-linejoin="round"/>
<path d="M263.458 141.667H253.771C252.572 141.667 251.422 142.143 250.574 142.991C249.726 143.839 249.25 144.989 249.25 146.188C249.25 147.387 249.726 148.536 250.574 149.384C251.422 150.232 252.572 150.708 253.771 150.708H260.229C261.428 150.708 262.578 151.185 263.426 152.032C264.274 152.88 264.75 154.03 264.75 155.229C264.75 156.428 264.274 157.578 263.426 158.426C262.578 159.274 261.428 159.75 260.229 159.75H249.25" stroke="#F2F2F2" stroke-width="2" stroke-linecap="round" stroke-linejoin="round"/>
<defs>
<linearGradient id="paint0_linear" x1="257" y1="92" x2="167" y2="270" gradientUnits="userSpaceOnUse">
<stop stop-color="#7B61FF"/>
<stop offset="1" stop-color="#7B61FF" stop-opacity="0"/>
</linearGradient>
</defs>
</svg>
