<svg width="263" height="92" viewBox="0 0 263 92" fill="none" xmlns="http://www.w3.org/2000/svg">
<rect width="92" height="92" rx="25" fill="url(#paint0_linear)"/>
<path d="M16.8666 39.7378L33.4957 24.5333L59.0333 24.5333V63.6333H16.8666V39.7378Z" fill="#7B61FF"/>
<path d="M25.3 39.7378L41.8982 24.5333L59.682 24.5333V63.6333H25.3V39.7378Z" fill="#9682FF"/>
<path d="M33.0847 39.7378L50.0103 24.5333L59.6821 24.5333V63.6333H33.0847V39.7378Z" fill="#BEB1FF"/>
<path d="M42.8154 39.7378L59.3577 24.5333L75.9 39.7378V63.6333H42.8154V39.7378Z" fill="white"/>
<path d="M118.784 52.232C118.784 52.976 118.976 53.576 119.36 54.032C119.768 54.464 120.512 54.68 121.592 54.68H123.788C124.052 54.68 124.28 54.776 124.472 54.968C124.664 55.16 124.76 55.388 124.76 55.652V58.028C124.76 58.292 124.664 58.52 124.472 58.712C124.28 58.904 124.052 59 123.788 59H121.124C118.868 59 117.128 58.46 115.904 57.38C114.704 56.276 114.104 54.596 114.104 52.34V44.6H111.728C111.464 44.6 111.236 44.504 111.044 44.312C110.852 44.12 110.756 43.892 110.756 43.628V41.252C110.756 40.988 110.852 40.76 111.044 40.568C111.236 40.376 111.464 40.28 111.728 40.28H114.104V34.412C114.104 34.148 114.2 33.92 114.392 33.728C114.584 33.536 114.812 33.44 115.076 33.44H117.812C118.076 33.44 118.304 33.536 118.496 33.728C118.688 33.92 118.784 34.148 118.784 34.412V40.28H123.428C123.692 40.28 123.92 40.376 124.112 40.568C124.304 40.76 124.4 40.988 124.4 41.252V43.628C124.4 43.892 124.304 44.12 124.112 44.312C123.92 44.504 123.692 44.6 123.428 44.6H118.784V52.232Z" fill="white"/>
<path d="M127.368 49.64C127.368 48.296 127.572 47.036 127.98 45.86C128.388 44.66 128.976 43.628 129.744 42.764C130.512 41.876 131.436 41.18 132.516 40.676C133.62 40.172 134.844 39.92 136.188 39.92C137.532 39.92 138.744 40.172 139.824 40.676C140.928 41.156 141.864 41.816 142.632 42.656C143.4 43.472 143.988 44.444 144.396 45.572C144.828 46.676 145.044 47.84 145.044 49.064V50.684C145.044 50.948 144.948 51.176 144.756 51.368C144.564 51.56 144.336 51.656 144.072 51.656H132.048C132.048 52.208 132.156 52.7 132.372 53.132C132.612 53.54 132.924 53.888 133.308 54.176C133.692 54.464 134.136 54.68 134.64 54.824C135.144 54.968 135.66 55.04 136.188 55.04C136.956 55.04 137.58 54.968 138.06 54.824C138.54 54.656 138.936 54.452 139.248 54.212C139.512 54.02 139.728 53.888 139.896 53.816C140.064 53.744 140.292 53.708 140.58 53.708H143.46C143.724 53.708 143.952 53.804 144.144 53.996C144.36 54.188 144.456 54.416 144.432 54.68C144.408 55.016 144.216 55.448 143.856 55.976C143.52 56.504 143.004 57.02 142.308 57.524C141.612 58.028 140.748 58.46 139.716 58.82C138.708 59.18 137.532 59.36 136.188 59.36C134.844 59.36 133.62 59.132 132.516 58.676C131.436 58.196 130.512 57.524 129.744 56.66C128.976 55.796 128.388 54.776 127.98 53.6C127.572 52.4 127.368 51.08 127.368 49.64ZM136.188 44.24C135.492 44.24 134.892 44.348 134.388 44.564C133.908 44.756 133.5 45.02 133.164 45.356C132.828 45.668 132.564 46.028 132.372 46.436C132.204 46.82 132.096 47.192 132.048 47.552H140.184C140.136 47.192 140.04 46.82 139.896 46.436C139.776 46.028 139.56 45.668 139.248 45.356C138.96 45.02 138.564 44.756 138.06 44.564C137.58 44.348 136.956 44.24 136.188 44.24Z" fill="white"/>
<path d="M166.544 58.028C166.544 58.292 166.448 58.52 166.256 58.712C166.064 58.904 165.836 59 165.572 59H162.836C162.572 59 162.344 58.904 162.152 58.712C161.96 58.52 161.864 58.292 161.864 58.028V48.884C161.864 47.444 161.528 46.292 160.856 45.428C160.184 44.564 159.152 44.132 157.76 44.132C156.488 44.132 155.48 44.564 154.736 45.428C154.016 46.292 153.656 47.444 153.656 48.884V58.028C153.656 58.292 153.56 58.52 153.368 58.712C153.176 58.904 152.948 59 152.684 59H149.948C149.684 59 149.456 58.904 149.264 58.712C149.072 58.52 148.976 58.292 148.976 58.028V41.252C148.976 40.988 149.072 40.76 149.264 40.568C149.456 40.376 149.684 40.28 149.948 40.28H152.684C152.948 40.28 153.176 40.376 153.368 40.568C153.56 40.76 153.656 40.988 153.656 41.252V42.08C154.28 41.456 155.012 40.94 155.852 40.532C156.692 40.124 157.688 39.92 158.84 39.92C160.304 39.92 161.528 40.148 162.512 40.604C163.496 41.06 164.288 41.672 164.888 42.44C165.488 43.208 165.908 44.108 166.148 45.14C166.412 46.148 166.544 47.216 166.544 48.344V58.028Z" fill="white"/>
<path d="M171.336 44.888C171.432 44.384 171.648 43.844 171.984 43.268C172.344 42.692 172.836 42.152 173.46 41.648C174.108 41.144 174.888 40.736 175.8 40.424C176.736 40.088 177.816 39.92 179.04 39.92C180.264 39.92 181.368 40.088 182.352 40.424C183.336 40.736 184.176 41.204 184.872 41.828C185.592 42.452 186.144 43.244 186.528 44.204C186.912 45.14 187.104 46.22 187.104 47.444V58.028C187.104 58.292 187.008 58.52 186.816 58.712C186.624 58.904 186.396 59 186.132 59H183.396C183.132 59 182.904 58.904 182.712 58.712C182.52 58.52 182.424 58.292 182.424 58.028V56.84C181.92 57.536 181.188 58.136 180.228 58.64C179.292 59.12 178.092 59.36 176.628 59.36C175.596 59.36 174.672 59.228 173.856 58.964C173.04 58.676 172.356 58.28 171.804 57.776C171.252 57.272 170.82 56.684 170.508 56.012C170.22 55.316 170.076 54.56 170.076 53.744C170.076 52.088 170.664 50.792 171.84 49.856C173.016 48.92 174.588 48.284 176.556 47.948L182.424 46.94C182.424 45.956 182.1 45.26 181.452 44.852C180.804 44.444 180 44.24 179.04 44.24C178.44 44.24 177.972 44.324 177.636 44.492C177.3 44.66 176.976 44.888 176.664 45.176C176.448 45.368 176.244 45.5 176.052 45.572C175.884 45.644 175.692 45.68 175.476 45.68H172.128C171.888 45.68 171.684 45.608 171.516 45.464C171.348 45.32 171.288 45.128 171.336 44.888ZM177.348 55.04C178.164 55.04 178.884 54.932 179.508 54.716C180.156 54.476 180.696 54.164 181.128 53.78C181.56 53.396 181.884 52.964 182.1 52.484C182.316 52.004 182.424 51.512 182.424 51.008V50.648L177.528 51.512C176.544 51.68 175.836 51.932 175.404 52.268C174.972 52.58 174.756 53.012 174.756 53.564C174.756 54.068 175.008 54.44 175.512 54.68C176.04 54.92 176.652 55.04 177.348 55.04Z" fill="white"/>
<path d="M209.47 58.028C209.47 58.292 209.374 58.52 209.182 58.712C208.99 58.904 208.762 59 208.498 59H205.762C205.498 59 205.27 58.904 205.078 58.712C204.886 58.52 204.79 58.292 204.79 58.028V48.884C204.79 47.444 204.454 46.292 203.782 45.428C203.11 44.564 202.078 44.132 200.686 44.132C199.414 44.132 198.406 44.564 197.662 45.428C196.942 46.292 196.582 47.444 196.582 48.884V58.028C196.582 58.292 196.486 58.52 196.294 58.712C196.102 58.904 195.874 59 195.61 59H192.874C192.61 59 192.382 58.904 192.19 58.712C191.998 58.52 191.902 58.292 191.902 58.028V41.252C191.902 40.988 191.998 40.76 192.19 40.568C192.382 40.376 192.61 40.28 192.874 40.28H195.61C195.874 40.28 196.102 40.376 196.294 40.568C196.486 40.76 196.582 40.988 196.582 41.252V42.08C197.206 41.456 197.938 40.94 198.778 40.532C199.618 40.124 200.614 39.92 201.766 39.92C203.23 39.92 204.454 40.148 205.438 40.604C206.422 41.06 207.214 41.672 207.814 42.44C208.414 43.208 208.834 44.108 209.074 45.14C209.338 46.148 209.47 47.216 209.47 48.344V58.028Z" fill="white"/>
<path d="M220.386 52.232C220.386 52.976 220.578 53.576 220.962 54.032C221.37 54.464 222.114 54.68 223.194 54.68H225.39C225.654 54.68 225.882 54.776 226.074 54.968C226.266 55.16 226.362 55.388 226.362 55.652V58.028C226.362 58.292 226.266 58.52 226.074 58.712C225.882 58.904 225.654 59 225.39 59H222.726C220.47 59 218.73 58.46 217.506 57.38C216.306 56.276 215.706 54.596 215.706 52.34V44.6H213.33C213.066 44.6 212.838 44.504 212.646 44.312C212.454 44.12 212.358 43.892 212.358 43.628V41.252C212.358 40.988 212.454 40.76 212.646 40.568C212.838 40.376 213.066 40.28 213.33 40.28H215.706V34.412C215.706 34.148 215.802 33.92 215.994 33.728C216.186 33.536 216.414 33.44 216.678 33.44H219.414C219.678 33.44 219.906 33.536 220.098 33.728C220.29 33.92 220.386 34.148 220.386 34.412V40.28H225.03C225.294 40.28 225.522 40.376 225.714 40.568C225.906 40.76 226.002 40.988 226.002 41.252V43.628C226.002 43.892 225.906 44.12 225.714 44.312C225.522 44.504 225.294 44.6 225.03 44.6H220.386V52.232Z" fill="white"/>
<path d="M228.97 49.64C228.97 48.296 229.174 47.036 229.582 45.86C229.99 44.66 230.578 43.628 231.346 42.764C232.114 41.876 233.038 41.18 234.118 40.676C235.222 40.172 236.446 39.92 237.79 39.92C239.134 39.92 240.346 40.172 241.426 40.676C242.53 41.156 243.466 41.816 244.234 42.656C245.002 43.472 245.59 44.444 245.998 45.572C246.43 46.676 246.646 47.84 246.646 49.064V50.684C246.646 50.948 246.55 51.176 246.358 51.368C246.166 51.56 245.938 51.656 245.674 51.656H233.65C233.65 52.208 233.758 52.7 233.974 53.132C234.214 53.54 234.526 53.888 234.91 54.176C235.294 54.464 235.738 54.68 236.242 54.824C236.746 54.968 237.262 55.04 237.79 55.04C238.558 55.04 239.182 54.968 239.662 54.824C240.142 54.656 240.538 54.452 240.85 54.212C241.114 54.02 241.33 53.888 241.498 53.816C241.666 53.744 241.894 53.708 242.182 53.708H245.062C245.326 53.708 245.554 53.804 245.746 53.996C245.962 54.188 246.058 54.416 246.034 54.68C246.01 55.016 245.818 55.448 245.458 55.976C245.122 56.504 244.606 57.02 243.91 57.524C243.214 58.028 242.35 58.46 241.318 58.82C240.31 59.18 239.134 59.36 237.79 59.36C236.446 59.36 235.222 59.132 234.118 58.676C233.038 58.196 232.114 57.524 231.346 56.66C230.578 55.796 229.99 54.776 229.582 53.6C229.174 52.4 228.97 51.08 228.97 49.64ZM237.79 44.24C237.094 44.24 236.494 44.348 235.99 44.564C235.51 44.756 235.102 45.02 234.766 45.356C234.43 45.668 234.166 46.028 233.974 46.436C233.806 46.82 233.698 47.192 233.65 47.552H241.786C241.738 47.192 241.642 46.82 241.498 46.436C241.378 46.028 241.162 45.668 240.85 45.356C240.562 45.02 240.166 44.756 239.662 44.564C239.182 44.348 238.558 44.24 237.79 44.24Z" fill="white"/>
<path d="M259.326 44.6C257.886 44.6 256.842 44.924 256.194 45.572C255.57 46.196 255.258 47.228 255.258 48.668V58.028C255.258 58.292 255.162 58.52 254.97 58.712C254.778 58.904 254.55 59 254.286 59H251.55C251.286 59 251.058 58.904 250.866 58.712C250.674 58.52 250.578 58.292 250.578 58.028V41.252C250.578 40.988 250.674 40.76 250.866 40.568C251.058 40.376 251.286 40.28 251.55 40.28H254.286C254.55 40.28 254.778 40.376 254.97 40.568C255.162 40.76 255.258 40.988 255.258 41.252V42.08C255.882 41.504 256.542 41.06 257.238 40.748C257.958 40.436 258.894 40.28 260.046 40.28H261.666C261.93 40.28 262.158 40.376 262.35 40.568C262.542 40.76 262.638 40.988 262.638 41.252V43.628C262.638 43.892 262.542 44.12 262.35 44.312C262.158 44.504 261.93 44.6 261.666 44.6H259.326Z" fill="white"/>
<defs>
<linearGradient id="paint0_linear" x1="46" y1="-2.05636e-06" x2="-23" y2="136.467" gradientUnits="userSpaceOnUse">
<stop stop-color="#7B61FF"/>
<stop offset="1" stop-color="#7B61FF" stop-opacity="0"/>
</linearGradient>
</defs>
</svg>
