<?xml version="1.0" encoding="UTF-8"?>
<svg width="313px" height="313px" viewBox="0 0 313 313" version="1.1" xmlns="http://www.w3.org/2000/svg" xmlns:xlink="http://www.w3.org/1999/xlink">
    <!-- Generator: Sketch 61.2 (89653) - https://sketch.com -->
    <title>beta_launch</title>
    <desc>Created with Sketch.</desc>
    <g id="screens" stroke="none" stroke-width="1" fill="none" fill-rule="evenodd">
        <g id="Artboard" transform="translate(-233.000000, -1199.000000)">
            <circle id="Oval" fill="#FFFFFF" opacity="0.175432478" transform="translate(377.325660, 1360.500000) rotate(-330.000000) translate(-377.325660, -1360.500000) " cx="377.32566" cy="1360.5" r="114.5"></circle>
            <path d="M298.632576,1361.73082 C295.094449,1362.7928 292.103037,1364.93182 289.623209,1367.82226 C288.353585,1369.3021 287.299404,1370.88518 286.447578,1372.46884 L286.35937,1372.63424 C286.127844,1373.07212 285.925841,1373.48438 285.752606,1373.86448 L285.707977,1373.96317 L285.652035,1373.94215 C280.977356,1372.19216 276.829049,1372.09138 273.201136,1373.41265 C270.098583,1374.54259 267.517174,1376.65393 265.412027,1379.45314 C264.283329,1380.95397 263.36267,1382.55856 262.632624,1384.16337 L262.557131,1384.33088 C262.359149,1384.77436 262.187794,1385.19184 262.04205,1385.57672 L261.967487,1385.77633 L261.964132,1385.77591 C256.677431,1385.18365 252.397798,1386.12236 249.093264,1388.32238 C243.404519,1392.08819 246.083925,1401 252.888891,1401 L366.307911,1401 C366.721535,1401 367.04278,1400.63717 366.995347,1400.22358 L366.982245,1400.12111 C366.964175,1399.99057 366.93413,1399.80505 366.889449,1399.57072 C366.79417,1399.07101 366.662456,1398.51625 366.48835,1397.91995 C365.99154,1396.21841 365.253385,1394.51683 364.224037,1392.92478 C362.678287,1390.53403 360.612211,1388.60817 357.958799,1387.32574 L357.81444,1387.25688 C354.82097,1385.84785 351.203277,1385.30871 346.917537,1385.77013 L346.849064,1385.77772 L346.827481,1385.71876 C346.652865,1385.24775 346.438412,1384.72448 346.182163,1384.16186 C345.450877,1382.55623 344.529269,1380.95082 343.40009,1379.44923 C341.292659,1376.64674 338.710117,1374.53339 335.607853,1373.40332 L335.474887,1373.3556 C331.924659,1372.10076 327.881465,1372.20375 323.340259,1373.87567 L323.106728,1373.96293 L323.125459,1374.00386 C322.916554,1373.53886 322.662709,1373.02232 322.362487,1372.46701 C321.506172,1370.88314 320.447601,1369.29985 319.174021,1367.81983 C317.922182,1366.36507 316.525956,1365.08804 314.978863,1364.03941 C314.955426,1364.02352 314.931044,1364.00909 314.905855,1363.99621 L313.498785,1363.27645 L313.461628,1363.25882 C307.931485,1360.83409 302.98988,1360.42296 298.632576,1361.73082 Z" id="Path" fill="#FFFFFF"></path>
            <g id="Group-3" transform="translate(445.000000, 1317.000000)">
                <g id="Group-13">
                    <circle id="Oval" stroke="#503AD3" stroke-width="2" fill="#FFC30E" cx="27" cy="27" r="27"></circle>
                    <circle id="Oval" stroke="#FFFFFF" stroke-width="2" cx="27" cy="27" r="19.6363636"></circle>
                    <text id="$" font-family="HelveticaRoundedLT-Black, HelveticaRounded LT Bold" font-size="27" font-weight="bold" fill="#FFFFFF">
                        <tspan x="18.0274545" y="36">$</tspan>
                    </text>
                </g>
            </g>
            <g id="Group" transform="translate(321.000000, 1285.000000)">
                <path d="M8.75360909,0.869842347 L103.64487,0.912090822 C108.060063,0.921951393 111.638914,4.50045969 111.649198,8.91565149 L111.740136,175.716742 C78.3298395,194.149451 36.5106619,195.432063 0.846915199,175.662081 L0.757938941,8.86627933 C0.747661063,4.44800625 4.32744436,0.864346589 8.74572171,0.861955718 C8.74835201,0.861954294 8.75098231,0.861954168 8.75360909,0.869842347 Z" id="Combined-Shape" stroke="#503AD3" fill="#503AD3"></path>
                <path d="M32.6546099,8.8672805 L33.5225527,12.3806533 C33.9470486,14.1009251 35.4489207,15.328643 37.2026413,15.4172254 L37.4060644,15.4223543 L75.3982516,15.4223543 C77.170124,15.4223543 78.7218989,14.2583501 79.2280487,12.5769235 L79.2817633,12.3806533 L80.1486099,8.8672805 L99.7536099,8.86743496 C102.515034,8.86743496 104.75361,11.1060112 104.75361,13.867435 L104.754247,179.264965 C74.5111455,193.347788 38.5719051,194.042079 6.75185214,178.71783 L6.75360989,13.867435 C6.75360989,11.1060112 8.99218614,8.86743496 11.7536099,8.86743496 L32.6546099,8.8672805 Z" id="Combined-Shape" fill="#FFFFFF"></path>
                <rect id="Rectangle" fill="#6E5CDA" opacity="0.288411458" x="15.7536099" y="34.8662805" width="80" height="54" rx="4"></rect>
                <rect id="Rectangle" fill="#6E5CDA" opacity="0.288411458" x="18.7536099" y="96.8662805" width="31" height="11" rx="4"></rect>
                <rect id="Rectangle" fill="#6E5CDA" opacity="0.288411458" x="18.7536099" y="115.866281" width="77" height="11" rx="4"></rect>
                <rect id="Rectangle" fill="#6E5CDA" opacity="0.288411458" x="18.7536099" y="135" width="77" height="11" rx="4"></rect>
            </g>
            <g id="Group-2" transform="translate(346.000000, 1317.000000)" fill="#B3A7FF" fill-rule="nonzero">
                <path d="M59.7536099,-0.133719496 C61.4104641,-0.133719496 62.7536099,1.20942625 62.7536099,2.8662805 L62.7536099,33.8662805 C62.7536099,35.5231348 61.4104641,36.8662805 59.7536099,36.8662805 L49.0136099,36.8662805 C47.3567556,36.8662805 46.0136099,35.5231348 46.0136099,33.8662805 L46.0136099,2.8662805 C46.0136099,1.20942625 47.3567556,-0.133719496 49.0136099,-0.133719496 L59.7536099,-0.133719496 Z M15.1136099,27.2558909 C16.7704641,27.2558909 18.1136099,28.5990366 18.1136099,30.2558909 L18.1136099,33.8662805 C18.1136099,35.5231348 16.7704641,36.8662805 15.1136099,36.8662805 L3.75360989,36.8662805 C2.09675564,36.8662805 0.753609886,35.5231348 0.753609886,33.8662805 L0.753609886,30.2558909 C0.753609886,28.5990366 2.09675564,27.2558909 3.75360989,27.2558909 L15.1136099,27.2558909 Z M37.4336099,14.7623844 C39.0904641,14.7623844 40.4336099,16.1055302 40.4336099,17.7623844 L40.4336099,33.8662805 C40.4336099,35.5231348 39.0904641,36.8662805 37.4336099,36.8662805 L26.0736099,36.8662805 C24.4167556,36.8662805 23.0736099,35.5231348 23.0736099,33.8662805 L23.0736099,17.7623844 C23.0736099,16.1055302 24.4167556,14.7623844 26.0736099,14.7623844 L37.4336099,14.7623844 Z" id="Rectangle-10"></path>
            </g>
            <g id="Group-3" transform="translate(499.000000, 1372.000000)">
                <g id="Group-13">
                    <circle id="Oval" stroke="#503AD3" stroke-width="2" fill="#FFC30E" cx="20.5" cy="20.5" r="20.5"></circle>
                    <circle id="Oval" stroke="#FFFFFF" stroke-width="2" cx="20.5" cy="20.5" r="14.9090909"></circle>
                    <path d="M20.5550118,29.5268333 C20.7873451,29.5268333 20.9684285,29.4653333 21.0982618,29.3423333 C21.2280951,29.2193333 21.2930118,29.0006667 21.2930118,28.6863333 L21.2930118,28.6863333 L21.2930118,27.5998333 C21.9626785,27.5725 22.6186785,27.4665833 23.2610118,27.2820833 C23.9033451,27.0975833 24.4739285,26.8208333 24.9727618,26.4518333 C25.4715951,26.0828333 25.8713451,25.625 26.1720118,25.0783333 C26.4726785,24.5316667 26.6230118,23.8893333 26.6230118,23.1513333 C26.6230118,22.509 26.5136785,21.9418333 26.2950118,21.4498333 C26.0763451,20.9578333 25.7483451,20.5205 25.3110118,20.1378333 C24.8736785,19.7551667 24.3201785,19.42375 23.6505118,19.1435833 C22.9808451,18.8634167 22.1950118,18.6071667 21.2930118,18.3748333 L21.2930118,18.3748333 L21.2930118,15.5458333 C21.7440118,15.6415 22.1164285,15.7918333 22.4102618,15.9968333 C22.7040951,16.2018333 22.9705951,16.41025 23.2097618,16.6220833 C23.4489285,16.8339167 23.6710118,17.0184167 23.8760118,17.1755833 C24.0810118,17.33275 24.3133451,17.4113333 24.5730118,17.4113333 C25.1196785,17.4113333 25.5433451,17.261 25.8440118,16.9603333 C26.1446785,16.6596667 26.2950118,16.2975 26.2950118,15.8738333 C26.2950118,15.3408333 26.1036785,14.8795833 25.7210118,14.4900833 C25.3383451,14.1005833 24.8805118,13.776 24.3475118,13.5163333 C23.8145118,13.2566667 23.2644285,13.0653333 22.6972618,12.9423333 C22.1300951,12.8193333 21.6620118,12.7578333 21.2930118,12.7578333 L21.2930118,12.7578333 L21.2930118,12.4913333 C21.2930118,12.177 21.2280951,11.9583333 21.0982618,11.8353333 C20.9684285,11.7123333 20.7873451,11.6508333 20.5550118,11.6508333 C20.3226785,11.6508333 20.1415951,11.7123333 20.0117618,11.8353333 C19.8819285,11.9583333 19.8170118,12.177 19.8170118,12.4913333 L19.8170118,12.4913333 L19.8170118,12.7578333 C19.2020118,12.7578333 18.5835951,12.8500833 17.9617618,13.0345833 C17.3399285,13.2190833 16.7830118,13.4958333 16.2910118,13.8648333 C15.7990118,14.2338333 15.3958451,14.6985 15.0815118,15.2588333 C14.7671785,15.8191667 14.6100118,16.4751667 14.6100118,17.2268333 C14.6100118,17.8691667 14.7193451,18.4124167 14.9380118,18.8565833 C15.1566785,19.30075 15.4846785,19.6936667 15.9220118,20.0353333 C16.3593451,20.377 16.9025951,20.67425 17.5517618,20.9270833 C18.2009285,21.1799167 18.9560118,21.4293333 19.8170118,21.6753333 L19.8170118,21.6753333 L19.8170118,24.8528333 C19.2976785,24.7298333 18.8774285,24.5316667 18.5562618,24.2583333 C18.2350951,23.985 17.9515118,23.70825 17.7055118,23.4280833 C17.4595118,23.1479167 17.2203451,22.8985 16.9880118,22.6798333 C16.7556785,22.4611667 16.4686785,22.3518333 16.1270118,22.3518333 C15.6350118,22.3518333 15.2318451,22.509 14.9175118,22.8233333 C14.6031785,23.1376667 14.4460118,23.534 14.4460118,24.0123333 C14.4460118,24.395 14.5655951,24.7981667 14.8047618,25.2218333 C15.0439285,25.6455 15.3924285,26.0315833 15.8502618,26.3800833 C16.3080951,26.7285833 16.8684285,27.019 17.5312618,27.2513333 C18.1940951,27.4836667 18.9560118,27.5998333 19.8170118,27.5998333 L19.8170118,27.5998333 L19.8170118,28.6863333 C19.8170118,29.0006667 19.8819285,29.2193333 20.0117618,29.3423333 C20.1415951,29.4653333 20.3226785,29.5268333 20.5550118,29.5268333 Z M19.8170118,18.0263333 C19.6120118,17.999 19.4070118,17.9511667 19.2020118,17.8828333 C18.9970118,17.8145 18.8125118,17.7188333 18.6485118,17.5958333 C18.4845118,17.4728333 18.3512618,17.3293333 18.2487618,17.1653333 C18.1462618,17.0013333 18.0950118,16.8168333 18.0950118,16.6118333 C18.0950118,16.4341667 18.1428451,16.2735833 18.2385118,16.1300833 C18.3341785,15.9865833 18.4640118,15.8704167 18.6280118,15.7815833 C18.7920118,15.69275 18.9765118,15.621 19.1815118,15.5663333 C19.3865118,15.5116667 19.5983451,15.4775 19.8170118,15.4638333 L19.8170118,15.4638333 L19.8170118,18.0263333 Z M21.2930118,24.8938333 L21.2930118,22.0648333 C21.5116785,22.1058333 21.7269285,22.1605 21.9387618,22.2288333 C22.1505951,22.2971667 22.3350951,22.3894167 22.4922618,22.5055833 C22.6494285,22.62175 22.7758451,22.7686667 22.8715118,22.9463333 C22.9671785,23.124 23.0150118,23.3358333 23.0150118,23.5818333 C23.0150118,24.0191667 22.8544285,24.3369167 22.5332618,24.5350833 C22.2120951,24.73325 21.7986785,24.8528333 21.2930118,24.8938333 L21.2930118,24.8938333 Z" id="$" fill="#FFFFFF" fill-rule="nonzero"></path>
                </g>
            </g>
            <g id="Group-16" transform="translate(337.000000, 1312.000000)">
                <g id="Group-5">
                    <rect id="Rectangle" fill="#A39FFF" x="0" y="0" width="81" height="57" rx="5"></rect>
                    <path d="M71.1947368,28.9253731 C72.3719754,28.9253731 73.3263158,29.8776033 73.3263158,31.0522388 C73.3263158,32.1798889 72.4467957,33.1025702 71.3348887,33.1745805 L71.1947368,33.1791045 L10.6578947,33.1791045 C9.48065619,33.1791045 8.52631579,32.2268743 8.52631579,31.0522388 C8.52631579,29.9245887 9.4058359,29.0019074 10.5177428,28.9298971 L10.6578947,28.9253731 L71.1947368,28.9253731 Z" id="Line-6" fill="#FFFFFF" fill-rule="nonzero"></path>
                    <path d="M20.8894737,39.1343284 C22.0667122,39.1343284 23.0210526,40.0865586 23.0210526,41.261194 C23.0210526,42.3888441 22.1415325,43.3115254 21.0296256,43.3835357 L20.8894737,43.3880597 L10.6578947,43.3880597 C9.48065619,43.3880597 8.52631579,42.4358295 8.52631579,41.261194 C8.52631579,40.133544 9.4058359,39.2108626 10.5177428,39.1388524 L10.6578947,39.1343284 L20.8894737,39.1343284 Z" id="Line-6" fill="#FFFFFF" fill-rule="nonzero"></path>
                    <path d="M40.9263158,39.1343284 C42.1035543,39.1343284 43.0578947,40.0865586 43.0578947,41.261194 C43.0578947,42.3888441 42.1783746,43.3115254 41.0664677,43.3835357 L40.9263158,43.3880597 L30.6947368,43.3880597 C29.5174983,43.3880597 28.5631579,42.4358295 28.5631579,41.261194 C28.5631579,40.133544 29.442678,39.2108626 30.5545849,39.1388524 L30.6947368,39.1343284 L40.9263158,39.1343284 Z" id="Line-6" fill="#FFFFFF" fill-rule="nonzero"></path>
                    <rect id="Rectangle" fill="#D5D0F4" x="8.52631579" y="11.9104478" width="14.4947368" height="11.0597015" rx="2"></rect>
                    <g id="Group-4" transform="translate(56.273684, 11.910448)">
                        <ellipse id="Oval" fill="#FFC30E" cx="5.54210526" cy="5.52985075" rx="5.54210526" ry="5.52985075"></ellipse>
                        <ellipse id="Oval" fill="#FFFFFF" opacity="0.621047247" cx="11.5105263" cy="5.52985075" rx="5.54210526" ry="5.52985075"></ellipse>
                    </g>
                </g>
                <g id="Group-15" transform="translate(57.000000, 12.000000)"></g>
            </g>
            <g id="Group-14" transform="translate(376.000000, 1380.000000)">
                <path d="M0,6 L14.348564,8.65811587 L27.618045,12.4095662 L74.26,12.4095662 C76.8778297,12.4095662 79,14.5563035 79,17.2044383 L79,58.2051279 C79,60.8532626 76.8778297,63 74.26,63 L7.9,63 C3.53695048,63 0,59.4221044 0,55.0085465 L0,6 Z" id="Rectangle" stroke="#503AD3" fill="#503AD3"></path>
                <path d="M7,15 L72,15 C74.209139,15 76,16.790861 76,19 L76,55 C76,57.209139 74.209139,59 72,59 L7,59 L7,59" id="Path-19" stroke="#BEB5F1" stroke-linecap="round" stroke-dasharray="2,3"></path>
                <path d="M64.9411765,30 L80.8235294,30 C82.5778457,30 84,31.4326888 84,33.2 L84,42.8 C84,44.5673112 82.5778457,46 80.8235294,46 L64.9411765,46 C60.5553858,46 57,42.418278 57,38 C57,33.581722 60.5553858,30 64.9411765,30 Z" id="Rectangle" fill="#A39FFF"></path>
                <circle id="Oval" stroke="#503AD3" fill="#A39FFF" cx="65" cy="38" r="4"></circle>
                <path d="M6.4,0 L65.6,0 C69.1346224,0 72,2.6862915 72,6 L72,12 L6.4,12 C2.8653776,12 0,9.3137085 0,6 C0,2.6862915 2.8653776,0 6.4,0 Z" id="Rectangle" stroke="#503AD3" fill="#FFC30E"></path>
            </g>
        </g>
    </g>
</svg>