<?xml version="1.0" encoding="UTF-8"?>
<svg width="313px" height="313px" viewBox="0 0 313 313" version="1.1" xmlns="http://www.w3.org/2000/svg" xmlns:xlink="http://www.w3.org/1999/xlink">
    <!-- Generator: Sketch 61.2 (89653) - https://sketch.com -->
    <title>beta_launch</title>
    <desc>Created with Sketch.</desc>
    <g id="screens" stroke="none" stroke-width="1" fill="none" fill-rule="evenodd">
        <g id="Artboard" transform="translate(-221.000000, -132.000000)">
            <g id="Group-9" transform="translate(259.000000, 164.000000)">
                <circle id="Oval" fill="#FFFFFF" opacity="0.175432478" cx="124.82566" cy="114.5" r="114.5"></circle>
                <path d="M66.8929563,166.245841 C73.0521773,158.081947 79.0784324,154 84.9717217,154 C93.8116556,154 97.5314183,155.135128 102.278199,158.95488 C107.02498,162.774631 111.571948,165.217735 113.303432,164.832365 C115.034917,164.446994 123.839131,162.87774 127.70228,163.585531 C131.565429,164.293322 133.062351,165.115925 134.049699,166.245841 C135.037047,167.375757 145.790771,159.614654 147.635721,158.382632 C149.48067,157.15061 152.214004,156.585118 153.761807,157.288148 C155.309611,157.991178 153.38862,161.022692 151.403748,162.402832 C149.418875,163.782972 138.730508,173.863577 136.76726,174.676638 C134.804012,175.489698 121.189588,182 114.649747,182 C108.109905,182 90.9829039,175.100889 88.4324879,174.676638 C85.8820719,174.252386 81.444984,174.914155 79.8852234,176.532605 C78.845383,177.611572 77.554953,178.655626 76.0139336,179.664766 L66.32566,167.470711 L66.8929563,166.245841 Z" id="Path-2" stroke="#503AD3" fill="#FFFFFF" stroke-linecap="round"></path>
                <path d="M114.32566,172 C118.344215,171.657599 121.115719,171.45385 122.64017,171.388751 C127.751769,171.170469 130.68338,171.218771 132.164092,170.741648 C135.378755,169.7058 134.303551,166.96789 133.39011,166" id="Path-3" stroke="#503AD3" stroke-linecap="round"></path>
                <path d="M66.1677358,161.043156 L77.8668559,174.623548 C80.3495352,177.505445 80.0764521,181.842486 77.2518992,184.390215 C71.5229799,189.557664 68.2803574,192.414192 67.5240317,192.959797 C66.5674418,193.649872 65.2414793,193.778839 63.5461442,193.3467 L53.5097946,204.084026 C42.0391193,194.94039 32.3639121,183.639822 25.0981085,170.796256 L40.2855051,166 C40.075511,164.839257 40.7558464,163.785377 42.3265113,162.83836 C43.7233644,161.996141 49.4723087,160.627349 59.5733444,158.731985 C62.0263087,158.271709 64.5387942,159.152273 66.1677358,161.043156 Z" id="Path-8" fill="#503AD3"></path>
                <path d="M123.393366,89.4167962 C123.956399,89.8424943 125.085477,90.0628032 125.86268,89.4167962 C126.639882,88.7707893 130.774271,81.1993034 131.885058,79.6145701 C132.995845,78.0298369 134.133097,76.6516325 135.77465,76.6516325 C137.416204,76.6516325 141.384455,77.3203753 143.206484,78.8915356 C145.028513,80.4626959 148.400974,83.1165413 148.400974,86.920858 C148.400974,90.7251748 147.299691,93.3609508 144.908923,94.3856036 C142.518156,95.4102565 136.869264,95.2311625 134.675993,95.2311625 C132.482722,95.2311625 129.541689,94.2358556 127.735098,93.3609508 C125.928507,92.486046 124.913398,92.448754 124.02859,93.3609508 C123.143782,94.2731476 123.837052,97.5869061 129.040328,99.827176 C134.243604,102.067446 141.116132,103.591364 149.469088,104.55541 C157.822045,105.519456 167.748555,105.58512 170.273739,106.688197 C171.957195,107.423582 173.766972,108.194183 175.703069,109 L191.32566,93.3609508 C185.348846,90.2179497 181.882725,88.2089356 180.927296,87.3339085 C179.494153,86.0213679 174.64999,77.1916157 173.363873,74.8695413 C172.077757,72.5474669 168.72669,62.3706914 167.09208,58.8604339 C165.45747,55.3501764 158.747945,45.556745 157.553721,44.8946053 C156.359496,44.2324656 155.122266,46.119472 155.122266,47.6323054 C155.122266,48.6408609 156.866616,51.9377419 160.355315,57.5229484 C161.621855,59.5060817 162.425601,61.121996 162.766554,62.3706914 C163.107506,63.6193869 163.107506,64.9470901 162.766554,66.3538011 C161.67708,63.6165684 160.328441,61.3869871 158.720637,59.665057 C156.308931,57.0821619 145.438493,49.0362998 144.11862,48.1944683 C142.798748,47.3526368 138.799765,44.5017287 137.77936,44.1715708 C136.758955,43.8414129 135.77465,43.9393633 135.77465,44.8946053 C135.77465,45.8498473 136.387017,49.144405 141.476715,53.3336767 C146.566413,57.5229484 149.687055,59.4913925 150.955528,60.6278517 C151.801177,61.3854911 153.634601,64.1315062 156.455799,68.8658967 C153.23505,65.9308431 150.462653,63.7657747 148.138607,62.3706914 C144.652537,60.2780666 134.885139,56.1858297 132.978937,55.2437938 C131.072735,54.301758 123.461896,51.6579293 121.719262,52.1293528 C119.976628,52.6007763 119.749104,53.8699915 121.719262,55.2437938 C123.68942,56.6175962 129.785446,59.7514916 131.56888,61.0005696 C133.352314,62.2496475 140.641661,65.6718005 145.309334,67.5478536 C148.421116,68.7985556 150.303181,71.2391182 150.955528,74.8695413 C145.102639,72.0385425 141.10927,70.3301854 138.975422,69.7444699 C135.77465,68.8658967 131.187896,69.161635 129.09302,72.3691844 C126.998145,75.5767337 122.978773,85.5783944 122.824372,86.6934028 C122.669971,87.8084112 122.830332,88.9910982 123.393366,89.4167962 Z" id="Path-5" stroke="#503AD3" fill="#FFFFFF" stroke-linecap="round" stroke-linejoin="round"></path>
                <path d="M185.533787,89.000523 C187.34048,87.16495 190.117109,86.6871894 192.43341,87.8133411 L192.43341,87.8133411 L239.259759,110.578262 C239.303576,111.880115 239.32566,113.187479 239.32566,114.5 C239.32566,128.919078 236.660365,142.715644 231.795566,155.423905 L174.015983,119.440941 C171.652259,117.968884 170.611992,115.063983 171.503906,112.426061 C173.136892,107.596327 175.090115,103.28764 177.363576,99.5 C179.618484,95.7432696 182.341888,92.2434439 185.533787,89.000523 Z" id="Path-9" stroke="#503AD3" fill="#FFC30E"></path>
                <path d="M119.148877,108.260801 C123.970654,107.096969 128.854056,109.937557 130.056261,114.605433 C131.00409,118.285632 129.380745,122.002914 126.288346,123.981587 L130.119745,138.856043 L128.140013,142 L123.827854,140.374716 L123.508907,139.136322 L124.229457,137.647024 L122.677542,136.630958 L123.55506,135.028501 L122.007479,134.029261 L122.889331,132.44363 L121.294116,131.259442 L122.128335,129.488861 L120.559576,128.407397 L119.757071,125.292237 C116.368729,124.709754 113.481408,122.261523 112.59506,118.820043 C111.392855,114.152167 114.327099,109.424633 119.148877,108.260801 Z M121.085351,111.775649 C118.937767,112.293516 117.643084,114.44769 118.193596,116.587131 C118.744108,118.726572 120.931348,120.041118 123.078932,119.523251 C125.226517,119.005384 126.5212,116.851211 125.970688,114.711769 C125.420175,112.572328 123.232936,111.257782 121.085351,111.775649 Z" id="Oval-2" fill="#B9B1EF" opacity="0.411225818"></path>
                <path d="M112.334621,112.996465 C114.628294,108.582168 120.299998,106.749022 125.002726,108.902018 C129.705453,111.055015 131.658377,116.378859 129.364704,120.793156 C127.556374,124.273383 123.648353,126.149237 119.770878,125.732205 L112.462204,139.798923 L108.667463,141 L106.32566,136.989498 L106.934175,135.818378 L108.556522,135.111409 L108.015133,133.330882 L109.843196,132.635135 L109.29354,130.870521 L111.113335,130.190685 L110.654557,128.251169 L112.565231,127.396432 L112.055978,125.55406 L113.58719,122.608746 C111.260934,120.000629 110.643405,116.251301 112.334621,112.996465 Z M118.934218,113.819186 C118.16966,115.290619 118.820635,117.065233 120.388211,117.782899 C121.955787,118.500564 123.846355,117.889516 124.610912,116.418083 C125.37547,114.946651 124.724495,113.172036 123.15692,112.454371 C121.589344,111.736705 119.698776,112.347754 118.934218,113.819186 Z" id="Oval-2" fill="#E0DCF7"></path>
                <path d="M137.32566,95.197113 C135.019953,92.6222834 131.657349,91 127.912857,91 C120.96114,91 115.32566,96.591457 115.32566,103.488869 C115.32566,105.07956 115.62539,106.600792 116.171871,108 M121.617442,112.972578 C123.150898,113.633221 124.84646,114 126.629593,114 C132.004224,114 136.58327,110.667774 138.32566,106" id="Shape" stroke="#FFFFFF" stroke-linecap="round"></path>
                <path d="M33.0584772,75.7540105 C30.8361826,76.4177463 28.9572795,77.7546375 27.3997014,79.5611577 C26.6022518,80.4860608 25.9401213,81.4754839 25.4050902,82.4652755 L25.3496871,82.5686466 C25.2042657,82.8423222 25.0773878,83.0999846 24.9685788,83.3375472 L24.9405476,83.3992273 L24.9054102,83.3860927 C21.9692483,82.2923463 19.3637005,82.2293585 17.085011,83.0551561 C15.1362999,83.7613695 13.5149195,85.080952 12.1926779,86.8304624 C11.4837439,87.7684812 10.9054788,88.7713489 10.4469372,89.7743553 L10.39952,89.8790495 C10.275168,90.1562244 10.1675397,90.4171508 10.0759985,90.657699 L10.0291655,90.7824522 L10.0270584,90.7821939 C6.70648536,90.4120305 4.01845141,90.998722 1.94287682,92.3737373 C-1.63021916,94.7273655 0.0527131281,100.297248 4.32690667,100.297248 L75.5652992,100.297248 C75.8250962,100.297248 76.0268703,100.070479 75.9970772,99.8119835 L75.9888482,99.747939 C75.9774985,99.6663541 75.9586268,99.5504067 75.9305629,99.403946 C75.8707186,99.0916284 75.7879887,98.7449025 75.6786332,98.372215 C75.3665871,97.3087513 74.9029529,96.2452697 74.2564198,95.2502375 C73.2855353,93.7560194 71.9878352,92.5523512 70.321229,91.7508338 L70.2305576,91.7077981 C68.3503614,90.8271552 66.0780912,90.4901907 63.3862214,90.7785771 L63.3432135,90.7833229 L63.3296573,90.7464724 C63.2199816,90.4520939 63.0852835,90.1250488 62.9243336,89.7734077 C62.4650138,88.769892 61.8861523,87.7665128 61.1769158,86.8280142 C59.8532407,85.0764585 58.2311478,83.7556182 56.2826183,83.0493205 L56.1991023,83.0194982 C53.9692075,82.2352247 51.4296805,82.2995933 48.5773529,83.3445393 L48.4306723,83.3990822 L48.4424368,83.4246584 C48.3112242,83.1340326 48.1517841,82.8111957 47.963215,82.4641314 C47.4253641,81.474209 46.7604766,80.4846564 45.9605423,79.5596402 C45.174263,78.6504141 44.297295,77.8522714 43.3255671,77.1968765 C43.3108462,77.1869478 43.295532,77.1779315 43.2797105,77.1698782 L42.3959314,76.7200266 L42.3725927,76.7090075 C38.8991143,75.1935515 35.7952964,74.936601 33.0584772,75.7540105 Z" id="Path" fill="#FFFFFF"></path>
                <path d="M205.384137,162.456763 C203.161843,163.120498 201.28294,164.45739 199.725361,166.26391 C198.927912,167.188813 198.265781,168.178236 197.73075,169.168028 L197.675347,169.271399 C197.529926,169.545074 197.403048,169.802737 197.294239,170.040299 L197.266208,170.101979 L197.23107,170.088845 C194.294908,168.995098 191.689361,168.932111 189.410671,169.757908 C187.46196,170.464122 185.84058,171.783704 184.518338,173.533215 C183.809404,174.471233 183.231139,175.474101 182.772597,176.477107 L182.72518,176.581802 C182.600828,176.858976 182.4932,177.119903 182.401659,177.360451 L182.354826,177.485204 L182.352718,177.484946 C179.032145,177.114783 176.344111,177.701474 174.268537,179.076489 C170.695441,181.430118 172.378373,187 176.652567,187 L247.890959,187 C248.150756,187 248.35253,186.773231 248.322737,186.514736 L248.314508,186.450691 C248.303159,186.369106 248.284287,186.253159 248.256223,186.106698 C248.196379,185.794381 248.113649,185.447655 248.004293,185.074967 C247.692247,184.011503 247.228613,182.948022 246.58208,181.95299 C245.611195,180.458771 244.313495,179.255103 242.646889,178.453586 L242.556218,178.41055 C240.676021,177.529907 238.403751,177.192943 235.711881,177.481329 L235.668874,177.486075 L235.655317,177.449225 C235.545642,177.154846 235.410944,176.827801 235.249994,176.47616 C234.790674,175.472644 234.211812,174.469265 233.502576,173.530766 C232.178901,171.779211 230.556808,170.45837 228.608278,169.752073 L228.524762,169.72225 C226.294868,168.937977 223.755341,169.002345 220.903013,170.047291 L220.756332,170.101834 L220.768097,170.12741 C220.636884,169.836785 220.477444,169.513948 220.288875,169.166884 C219.751024,168.176961 219.086137,167.187409 218.286202,166.262392 C217.499923,165.353166 216.622955,164.555024 215.651227,163.899629 C215.636506,163.8897 215.621192,163.880684 215.605371,163.87263 L214.721591,163.422779 L214.698253,163.41176 C211.224774,161.896304 208.120956,161.639353 205.384137,162.456763 Z" id="Path" fill="#FFFFFF"></path>
                <path d="M61.1363429,164.434076 C59.7773848,164.434076 55.6415566,166.122717 48.7288585,169.5" id="Path-7" stroke="#FFFFFF" opacity="0.345656622" stroke-linecap="round"></path>
                <path d="M66.7331444,169 C65.5258637,169.50661 61.3010837,171.568173 54.0588045,175.184689" id="Path" stroke="#FFFFFF" opacity="0.345656622" stroke-linecap="round"></path>
                <path d="M71,174 C69.1761994,175.12833 64.9285695,177.592858 58.32566,180.184689" id="Path" stroke="#FFFFFF" opacity="0.345656622" stroke-linecap="round"></path>
                <path d="M76,178 C73.831444,180.184689 70.3682572,183.396761 64.7365144,186.816099" id="Path" stroke="#FFFFFF" opacity="0.345656622" stroke-linecap="round"></path>
            </g>
        </g>
    </g>
</svg>